<svg width="175" height="25" viewBox="0 0 175 25" fill="none" xmlns="http://www.w3.org/2000/svg">
<g id="Group">
<g id="Group_2">
<path id="Vector" d="M31.3292 23.1077V0.388672H38.0669C40.1003 0.388672 41.8148 0.83726 43.2177 1.73444C44.6169 2.63161 45.3183 4.01623 45.3183 5.89536C45.3183 7.15635 44.8365 8.2796 43.873 9.26861C42.9095 10.2612 41.6271 10.9393 40.0224 11.2996C41.9884 11.448 43.5506 12.0802 44.709 13.1858C45.8639 14.2949 46.4413 15.6054 46.4413 17.1207C46.4413 19.1022 45.7044 20.5963 44.2272 21.5995C42.7501 22.6026 40.9434 23.1042 38.8038 23.1042H31.3257L31.3292 23.1077ZM34.4111 10.7239H36.7527C38.2689 10.7239 39.5406 10.3495 40.5537 9.60416C41.5704 8.85534 42.077 7.73917 42.077 6.24505C42.077 4.75094 41.5988 3.61003 40.6494 2.88593C39.6965 2.16184 38.485 1.79801 37.0078 1.79801H34.4076V10.7274L34.4111 10.7239ZM34.4111 21.6984H37.6844C39.243 21.6984 40.5289 21.2993 41.535 20.4974C42.541 19.6956 43.0441 18.477 43.0441 16.8346C43.0441 15.1921 42.5092 14.0512 41.4394 13.2812C40.3695 12.5112 39.0128 12.1297 37.362 12.1297H34.4111V21.6984Z" fill="#BD6603"/>
<path id="Vector_2" d="M55.9139 18.1307C54.8547 16.3081 54.3269 14.1782 54.3269 11.7481C54.3269 9.31792 54.8547 7.18802 55.9139 5.36187C56.9731 3.53926 58.3157 2.18995 59.9417 1.31397C61.5677 0.437987 63.3105 0 65.1703 0C67.0301 0 68.7765 0.437987 70.399 1.31397C72.0249 2.18995 73.3675 3.53926 74.4267 5.36187C75.4859 7.18448 76.0137 9.31439 76.0137 11.7481C76.0137 14.1818 75.4859 16.3081 74.4267 18.1307C73.3675 19.9534 72.0249 21.3062 70.399 22.1786C68.773 23.0546 67.0301 23.4926 65.1703 23.4926C63.3105 23.4926 61.5641 23.0546 59.9417 22.1786C58.3157 21.3027 56.9731 19.9534 55.9139 18.1307ZM59.9098 4.13266C58.4538 5.98707 57.7276 8.52671 57.7276 11.7481C57.7276 14.9694 58.4538 17.5055 59.9098 19.3635C61.3622 21.2179 63.1192 22.1468 65.1703 22.1468C67.2214 22.1468 68.9784 21.2179 70.4308 19.3635C71.8832 17.5091 72.613 14.9694 72.613 11.7481C72.613 8.52671 71.8868 5.9906 70.4308 4.13266C68.9749 2.27826 67.2214 1.34929 65.1703 1.34929C63.1192 1.34929 61.3622 2.27826 59.9098 4.13266Z" fill="#BD6603"/>
<path id="Vector_3" d="M85.5073 23.1077V0.388672H92.7587C95.0046 0.388672 96.8502 0.922033 98.2955 1.98875C99.7408 3.05548 100.46 4.68736 100.46 6.88438C100.46 9.0814 99.6806 10.7451 98.1184 11.8754C96.5562 13.0057 94.6326 13.5708 92.3442 13.5708H88.5892V23.1042H85.5073V23.1077ZM88.5892 12.165H91.4763C93.1661 12.165 94.5193 11.7376 95.536 10.8828C96.5526 10.028 97.0592 8.71759 97.0592 6.94796C97.0592 3.51467 95.2951 1.79801 91.7668 1.79801H88.5892V12.165Z" fill="#BD6603"/>
<path id="Vector_4" d="M106.376 23.1074L113.114 12.0339C111.831 11.5006 110.815 10.7376 110.064 9.74507C109.316 8.75253 108.941 7.59397 108.941 6.27293C108.941 2.34866 111.562 0.384766 116.805 0.384766H123.256V23.1038H120.174V12.7686H117.06C116.805 12.7686 116.44 12.7474 115.969 12.7051L110.099 23.1038H106.376V23.1074ZM120.174 1.79764H117.446C115.841 1.79764 114.563 2.17205 113.613 2.91735C112.66 3.66617 112.186 4.85652 112.186 6.50252C112.186 8.03902 112.664 9.2329 113.613 10.0877C114.566 10.9425 115.824 11.3699 117.382 11.3699H120.174V1.80117V1.79764Z" fill="#BD6603"/>
<path id="Vector_5" d="M133.384 23.1077V0.388672H136.465V10.8828H147.504V0.388672H150.586V23.1077H147.504V12.2922H136.465V23.1077H133.384Z" fill="#BD6603"/>
<path id="Vector_6" d="M160.525 23.1077V0.388672H175V1.79801H163.607V10.8863H171.854V12.2957H163.607V21.7019H175V23.1113H160.525V23.1077Z" fill="#BD6603"/>
<path id="Vector_7" d="M20.5532 24.178H23.8264L22.8806 21.7337L22.5795 20.9496H20.9641L20.4222 19.5473L13.0043 0.388672H9.76651L10.3616 1.92871L3.40074 19.5473L2.84812 20.9496H1.28591L1.15129 21.2993H1.13713L0 24.178H2.29196L2.89417 22.6203H19.951L20.5532 24.178ZM4.98421 19.5473L6.70583 15.1073L7.24783 13.698L11.0843 3.80783L14.896 13.698L15.4379 15.1073L17.1489 19.5473L17.6909 20.9496H4.43513L4.98067 19.5473H4.98421Z" fill="#BD6603"/>
</g>
</g>
</svg>
