<svg width="224" height="50" viewBox="0 0 224 50" fill="none" xmlns="http://www.w3.org/2000/svg">
<g id="Group">
<g id="Group_2">
<path id="Vector" d="M40.1015 29.578V0.497559H48.7257C51.3284 0.497559 53.5231 1.07175 55.3186 2.22014C57.1097 3.36852 58.0075 5.14084 58.0075 7.54612C58.0075 9.16019 57.3908 10.5979 56.1575 11.8639C54.9242 13.1343 53.2827 14.0024 51.2287 14.4636C53.7452 14.6535 55.7449 15.4628 57.2276 16.8779C58.7058 18.2976 59.4449 19.9749 59.4449 21.9145C59.4449 24.4509 58.5017 26.3634 56.6109 27.6474C54.7201 28.9314 52.4076 29.5734 49.6689 29.5734H40.0969L40.1015 29.578ZM44.0463 13.7266H47.0435C48.9842 13.7266 50.612 13.2474 51.9088 12.2934C53.2102 11.3349 53.8586 9.9062 53.8586 7.99373C53.8586 6.08126 53.2465 4.6209 52.0313 3.69406C50.8115 2.76721 49.2608 2.30152 47.37 2.30152H44.0418V13.7311L44.0463 13.7266ZM44.0463 27.774H48.236C50.2311 27.774 51.8771 27.2631 53.1648 26.2368C54.4526 25.2105 55.0965 23.6507 55.0965 21.5483C55.0965 19.4459 54.4118 17.9856 53.0424 17C51.6731 16.0143 49.9364 15.526 47.8234 15.526H44.0463V27.774Z" fill="#BD6603"/>
<path id="Vector_2" d="M71.5697 23.2074C70.2139 20.8744 69.5383 18.1481 69.5383 15.0375C69.5383 11.9269 70.2139 9.20066 71.5697 6.8632C72.9255 4.53025 74.644 2.80314 76.7252 1.68188C78.8065 0.560623 81.0374 0 83.4179 0C85.7984 0 88.0338 0.560623 90.1106 1.68188C92.1918 2.80314 93.9103 4.53025 95.2661 6.8632C96.6218 9.19614 97.2974 11.9224 97.2974 15.0375C97.2974 18.1526 96.6218 20.8744 95.2661 23.2074C93.9103 25.5403 92.1918 27.2719 90.1106 28.3887C88.0293 29.5099 85.7984 30.0705 83.4179 30.0705C81.0374 30.0705 78.802 29.5099 76.7252 28.3887C74.644 27.2674 72.9255 25.5403 71.5697 23.2074ZM76.6844 5.28981C74.8208 7.66344 73.8913 10.9142 73.8913 15.0375C73.8913 19.1609 74.8208 22.4071 76.6844 24.7853C78.5435 27.1589 80.7925 28.348 83.4179 28.348C86.0433 28.348 88.2923 27.1589 90.1514 24.7853C92.0104 22.4116 92.9445 19.1609 92.9445 15.0375C92.9445 10.9142 92.015 7.66797 90.1514 5.28981C88.2878 2.91618 86.0433 1.7271 83.4179 1.7271C80.7925 1.7271 78.5435 2.91618 76.6844 5.28981Z" fill="#BD6603"/>
<path id="Vector_3" d="M109.449 29.578V0.497559H118.731C121.606 0.497559 123.968 1.18026 125.818 2.54567C127.668 3.91107 128.589 5.99987 128.589 8.81207C128.589 11.6243 127.591 13.7537 125.592 15.2005C123.592 16.6473 121.13 17.3707 118.201 17.3707H113.394V29.5734H109.449V29.578ZM113.394 15.5713H117.09C119.253 15.5713 120.985 15.0242 122.286 13.9301C123.587 12.8359 124.236 11.1586 124.236 8.89344C124.236 4.49883 121.978 2.30152 117.462 2.30152H113.394V15.5713Z" fill="#BD6603"/>
<path id="Vector_4" d="M136.161 29.5776L144.785 15.4036C143.144 14.7209 141.843 13.7443 140.881 12.4739C139.925 11.2034 139.444 9.72046 139.444 8.02953C139.444 3.00647 142.799 0.492676 149.51 0.492676H157.767V29.5731H153.822V16.344H149.837C149.51 16.344 149.043 16.3169 148.44 16.2626L140.927 29.5731H136.161V29.5776ZM153.822 2.30115H150.331C148.277 2.30115 146.64 2.78041 145.425 3.73438C144.205 4.69288 143.597 6.21652 143.597 8.3234C143.597 10.2901 144.21 11.8183 145.425 12.9124C146.644 14.0066 148.254 14.5536 150.249 14.5536H153.822V2.30568V2.30115Z" fill="#BD6603"/>
<path id="Vector_5" d="M170.731 29.578V0.497559H174.676V13.9301H188.805V0.497559H192.749V29.578H188.805V15.734H174.676V29.578H170.731Z" fill="#BD6603"/>
<path id="Vector_6" d="M205.473 29.578V0.497559H224V2.30152H209.418V13.9346H219.974V15.7385H209.418V27.7785H224V29.5825H205.473V29.578Z" fill="#BD6603"/>
<path id="Vector_7" d="M26.3081 30.9479H30.4978L29.2872 27.8192L28.9018 26.8155H26.8341L26.1404 25.0206L16.6455 0.497559H12.5011L13.2629 2.46881L4.35295 25.0206L3.64559 26.8155H1.64596L1.47365 27.2631H1.45552L0 30.9479H2.93371L3.70454 28.954H25.5373L26.3081 30.9479ZM6.37979 25.0206L8.58347 19.3374L9.27722 17.5335L14.1879 4.87408L19.0668 17.5335L19.7606 19.3374L21.9507 25.0206L22.6444 26.8155H5.67697L6.37525 25.0206H6.37979Z" fill="#BD6603"/>
</g>
<g id="Group_3">
<path id="Vector_8" d="M58.8964 43.0825V49.8462H57.6539V47.0928C57.6539 46.9572 57.663 46.8713 57.6902 46.8216L57.6721 46.8035C57.6041 46.8306 57.5179 46.8532 57.4091 46.8532H54.7248C54.616 46.8532 54.5389 46.8351 54.4709 46.8035L54.4527 46.8216C54.4799 46.8894 54.489 46.9753 54.489 47.0928V49.8462H53.2466V43.0825H54.489V45.4516C54.489 45.5692 54.4799 45.6551 54.4527 45.7229L54.4709 45.741C54.5207 45.7139 54.6069 45.7048 54.7248 45.7048H57.4091C57.536 45.7048 57.6222 45.7139 57.6721 45.741L57.6902 45.7229C57.663 45.6732 57.6539 45.5873 57.6539 45.4516V43.0825H58.8964Z" fill="#BD6603"/>
<path id="Vector_9" d="M61.9751 49.8461L65.2534 42.9468H65.4575L68.7358 49.8461H67.3573L66.6409 48.2411H64.07L63.3535 49.8461H61.9751ZM64.3783 47.2962C64.4735 47.2781 64.6413 47.2691 64.8725 47.2691H65.8338C66.0651 47.2691 66.2328 47.2781 66.328 47.2962L66.3371 47.2871C66.251 47.1696 66.1512 47.0068 66.0469 46.7853L65.6026 45.7228C65.4575 45.3837 65.3894 45.1441 65.3804 44.9904H65.3396C65.3214 45.1531 65.2443 45.3973 65.1083 45.7228L64.6639 46.7853C64.5778 46.9887 64.478 47.1515 64.3738 47.2871L64.3828 47.2962H64.3783Z" fill="#BD6603"/>
<path id="Vector_10" d="M82.6698 43.0825V49.8462H81.4274V44.4615C81.4274 44.353 81.4365 44.2671 81.4682 44.1993L81.45 44.1812C81.4002 44.2083 81.314 44.2173 81.1961 44.2173H78.5617C78.4438 44.2173 78.3576 44.2083 78.3078 44.1812L78.2896 44.1993C78.3168 44.2671 78.3259 44.353 78.3259 44.4615V49.8462H77.0835V43.0825H82.6652H82.6698Z" fill="#BD6603"/>
<path id="Vector_11" d="M89.444 42.938C90.4824 42.938 91.3348 43.268 92.0014 43.9327C92.6679 44.5973 92.9989 45.4382 92.9989 46.4645C92.9989 47.4909 92.6679 48.3318 92.0014 48.9964C91.3348 49.661 90.4779 49.9911 89.444 49.9911C88.4102 49.9911 87.5623 49.661 86.8957 48.9964C86.2292 48.3318 85.8982 47.4909 85.8982 46.4645C85.8982 45.4382 86.2292 44.5973 86.8957 43.9327C87.5623 43.268 88.4057 42.938 89.444 42.938ZM87.8343 44.8052C87.4172 45.2393 87.2041 45.7909 87.2041 46.469C87.2041 47.1472 87.4172 47.6943 87.8343 48.1238C88.2515 48.5578 88.782 48.7703 89.444 48.7703C90.106 48.7703 90.6547 48.5578 91.0719 48.1238C91.489 47.6988 91.6931 47.1472 91.6931 46.469C91.6931 45.7909 91.489 45.2438 91.0719 44.8052C90.6547 44.3803 90.1106 44.1678 89.444 44.1678C88.7775 44.1678 88.2515 44.3803 87.8343 44.8052Z" fill="#BD6603"/>
<path id="Vector_12" d="M99.8958 49.8461V47.5087C99.8958 47.2555 99.9139 47.0837 99.9638 46.9978L99.9456 46.9797C99.3426 47.2012 98.6851 47.3188 97.9777 47.3188C96.6129 47.3188 95.8647 46.5366 95.8647 45.0762V43.0869H97.1071V44.9632C97.1071 45.7363 97.4835 46.1613 98.1908 46.1613C98.676 46.1613 99.2473 46.0664 99.8958 45.872V43.0869H101.138V49.8506H99.8958V49.8461Z" fill="#BD6603"/>
<path id="Vector_13" d="M109.182 43.0825V44.2309H107.554C107.436 44.2309 107.35 44.2219 107.3 44.1947L107.282 44.2128C107.3 44.2626 107.309 44.3485 107.309 44.475V49.8508H106.067V44.475C106.067 44.3665 106.076 44.2806 106.108 44.2128L106.09 44.1947C106.031 44.2219 105.944 44.2309 105.836 44.2309H104.199V43.0825H109.182Z" fill="#BD6603"/>
<path id="Vector_14" d="M110.996 49.8461L114.274 42.9468H114.478L117.756 49.8461H116.378L115.662 48.2411H113.091L112.374 49.8461H110.996ZM113.399 47.2962C113.494 47.2781 113.662 47.2691 113.893 47.2691H114.854C115.086 47.2691 115.253 47.2781 115.349 47.2962L115.358 47.2871C115.272 47.1696 115.172 47.0068 115.068 46.7853L114.623 45.7228C114.478 45.3837 114.41 45.1441 114.401 44.9904H114.36C114.342 45.1531 114.265 45.3973 114.129 45.7228L113.685 46.7853C113.598 46.9887 113.499 47.1515 113.394 47.2871L113.403 47.2962H113.399Z" fill="#BD6603"/>
<path id="Vector_15" d="M124.055 49.9144L122.531 46.6094C122.368 46.2432 122.268 45.9222 122.25 45.6509H122.209C122.2 46.0081 122.141 46.3381 122.055 46.6275L121.066 49.8466H119.747L121.996 42.9834H122.2L123.937 46.9485C124.023 47.161 124.082 47.4006 124.109 47.6809H124.145C124.172 47.3825 124.231 47.1384 124.308 46.9485L126.045 42.9834H126.249L128.507 49.8466H127.179L126.199 46.6275C126.113 46.3381 126.054 46.0081 126.045 45.6509H126.004C125.977 45.9312 125.886 46.2522 125.723 46.6094L124.2 49.9144H124.045H124.055Z" fill="#BD6603"/>
<path id="Vector_16" d="M135.354 43.0825V44.2309H133.726C133.608 44.2309 133.522 44.2219 133.472 44.1947L133.454 44.2128C133.472 44.2626 133.481 44.3485 133.481 44.475V49.8508H132.239V44.475C132.239 44.3665 132.248 44.2806 132.28 44.2128L132.262 44.1947C132.203 44.2219 132.117 44.2309 132.008 44.2309H130.371V43.0825H135.354Z" fill="#BD6603"/>
<path id="Vector_17" d="M138.936 49.0055C138.256 48.3499 137.921 47.4999 137.921 46.4645C137.921 45.4292 138.261 44.5792 138.936 43.9236C139.616 43.268 140.487 42.938 141.562 42.938C142.482 42.938 143.289 43.1912 143.997 43.684L143.307 44.7284C142.763 44.3531 142.183 44.1678 141.562 44.1678C140.872 44.1678 140.319 44.3803 139.893 44.8052C139.458 45.2302 139.245 45.7818 139.245 46.469C139.245 47.1563 139.458 47.7079 139.893 48.1329C140.319 48.5579 140.872 48.7703 141.562 48.7703C142.183 48.7703 142.763 48.585 143.307 48.2097L143.997 49.2541C143.289 49.7469 142.487 50.0001 141.562 50.0001C140.487 50.0001 139.612 49.6701 138.936 49.0145V49.0055Z" fill="#BD6603"/>
<path id="Vector_18" d="M150.372 48.8428L150.14 47.7125C150.023 47.0841 149.764 46.8309 149.193 46.8309H148.64C148.495 46.8309 148.399 46.8219 148.349 46.7902L148.34 46.8083C148.368 46.8942 148.39 47.0118 148.39 47.1564V49.842H147.148V43.0783H148.39V45.5062C148.39 45.6509 148.372 45.7594 148.34 45.8453L148.349 45.8634C148.399 45.8362 148.495 45.8227 148.64 45.8227H149.193C149.728 45.8227 149.986 45.5695 150.131 44.923L150.363 43.9554C150.508 43.327 150.984 43.0195 151.768 43.0195C152.009 43.0195 152.213 43.0286 152.39 43.0602V44.1905C152.303 44.1815 152.185 44.1724 152.049 44.1724C151.727 44.1724 151.546 44.3081 151.478 44.5703L151.265 45.3841C151.179 45.7323 151.034 45.9628 150.83 46.0894C150.617 46.216 150.249 46.2929 149.714 46.3019V46.3381C150.798 46.3652 151.197 46.6003 151.324 47.3237L151.496 48.1375C151.582 48.5716 151.727 48.7253 152.086 48.7253C152.145 48.7253 152.281 48.7163 152.494 48.6982V49.8692C152.231 49.8963 151.99 49.9053 151.768 49.9053C150.984 49.9053 150.517 49.5482 150.372 48.8428Z" fill="#BD6603"/>
<path id="Vector_19" d="M158.633 42.938C159.672 42.938 160.524 43.268 161.191 43.9327C161.857 44.5973 162.188 45.4382 162.188 46.4645C162.188 47.4909 161.857 48.3318 161.191 48.9964C160.524 49.661 159.667 49.9911 158.633 49.9911C157.599 49.9911 156.752 49.661 156.085 48.9964C155.418 48.3318 155.087 47.4909 155.087 46.4645C155.087 45.4382 155.418 44.5973 156.085 43.9327C156.752 43.268 157.595 42.938 158.633 42.938ZM157.024 44.8052C156.606 45.2393 156.393 45.7909 156.393 46.469C156.393 47.1472 156.606 47.6943 157.024 48.1238C157.441 48.5578 157.971 48.7703 158.633 48.7703C159.295 48.7703 159.844 48.5578 160.261 48.1238C160.678 47.6988 160.882 47.1472 160.882 46.469C160.882 45.7909 160.678 45.2438 160.261 44.8052C159.844 44.3803 159.3 44.1678 158.633 44.1678C157.967 44.1678 157.441 44.3803 157.024 44.8052Z" fill="#BD6603"/>
<path id="Vector_20" d="M170.536 42.9877H170.74V49.8509H169.498V46.5459C169.498 45.9853 169.534 45.5874 169.606 45.3568L169.566 45.3478C169.457 45.5874 169.294 45.8135 169.08 46.026L165.222 49.9504H165.027V43.0872H166.256V46.3831C166.256 46.9528 166.219 47.3507 166.151 47.5813L166.188 47.5903C166.296 47.3507 166.46 47.1246 166.682 46.9121L170.531 42.9877H170.536ZM169.597 41.5093C169.557 42.3593 169.035 42.8611 168.142 42.8611C167.249 42.8611 166.736 42.3593 166.695 41.5093H167.512C167.512 41.9433 167.725 42.2055 168.142 42.2055C168.559 42.2055 168.781 41.9433 168.772 41.5093H169.597Z" fill="#BD6603"/>
</g>
</g>
</svg>
