<svg width="780" height="174" viewBox="0 0 780 174" fill="none" xmlns="http://www.w3.org/2000/svg">
<path d="M139.639 102.93V1.73047H169.67C178.733 1.73047 186.375 3.72866 192.627 7.72504C198.864 11.7214 201.99 17.8891 201.99 26.2594C201.99 31.8764 199.843 36.8798 195.548 41.2852C191.254 45.7064 185.538 48.7273 178.385 50.3322C187.148 50.993 194.111 53.8093 199.274 58.734C204.422 63.6744 206.995 69.5116 206.995 76.2614C206.995 85.0881 203.711 91.7435 197.127 96.2119C190.543 100.68 182.491 102.914 172.954 102.914H139.623L139.639 102.93ZM153.375 47.7676H163.812C170.57 47.7676 176.238 46.0998 180.754 42.7799C185.285 39.4444 187.543 34.4725 187.543 27.8171C187.543 21.1617 185.412 16.0797 181.18 12.8543C176.933 9.62884 171.533 8.00824 164.949 8.00824H153.36V47.7833L153.375 47.7676ZM153.375 96.6525H167.965C174.912 96.6525 180.643 94.8745 185.127 91.3029C189.612 87.7314 191.854 82.3032 191.854 74.987C191.854 67.6708 189.469 62.5888 184.701 59.1588C179.933 55.7288 173.886 54.0296 166.528 54.0296H153.375V96.6525Z" fill="white"/>
<path d="M249.216 80.7616C244.495 72.6429 242.143 63.1554 242.143 52.3306C242.143 41.5057 244.495 32.0183 249.216 23.8839C253.937 15.7653 259.921 9.75493 267.168 5.85295C274.416 1.95097 282.184 0 290.473 0C298.763 0 306.547 1.95097 313.778 5.85295C321.025 9.75493 327.009 15.7653 331.73 23.8839C336.451 32.0025 338.804 41.49 338.804 52.3306C338.804 63.1712 336.451 72.6429 331.73 80.7616C327.009 88.8802 321.025 94.9062 313.778 98.7925C306.531 102.694 298.763 104.645 290.473 104.645C282.184 104.645 274.4 102.694 267.168 98.7925C259.921 94.8905 253.937 88.8802 249.216 80.7616ZM267.026 18.4085C260.537 26.6688 257.3 37.9814 257.3 52.3306C257.3 66.6798 260.537 77.9767 267.026 86.2526C273.5 94.5129 281.331 98.6509 290.473 98.6509C299.615 98.6509 307.447 94.5129 313.92 86.2526C320.394 77.9924 323.646 66.6798 323.646 52.3306C323.646 37.9814 320.409 26.6845 313.92 18.4085C307.431 10.1483 299.615 6.0103 290.473 6.0103C281.331 6.0103 273.5 10.1483 267.026 18.4085Z" fill="white"/>
<path d="M381.118 102.93V1.73047H413.439C423.449 1.73047 431.675 4.10627 438.117 8.85787C444.559 13.6095 447.764 20.8785 447.764 30.6649C447.764 40.4514 444.291 47.8619 437.328 52.8967C430.365 57.9316 421.791 60.449 411.591 60.449H394.855V102.914H381.118V102.93ZM394.855 54.1869H407.723C415.254 54.1869 421.286 52.2831 425.817 48.4756C430.349 44.668 432.607 38.8308 432.607 30.9481C432.607 15.6549 424.744 8.00824 409.018 8.00824H394.855V54.1869Z" fill="white"/>
<path d="M474.133 102.93L504.164 53.6049C498.448 51.2291 493.917 47.8306 490.569 43.4094C487.238 38.9882 485.564 33.8275 485.564 27.9431C485.564 10.4628 497.248 1.71484 520.616 1.71484H549.368V102.915H535.632V56.8775H521.753C520.616 56.8775 518.99 56.7831 516.89 56.5943L490.727 102.915H474.133V102.93ZM535.632 8.00834H523.474C516.321 8.00834 510.622 9.67614 506.39 12.996C502.143 16.3315 500.027 21.6338 500.027 28.9658C500.027 35.81 502.159 41.128 506.39 44.9356C510.637 48.7431 516.242 50.6469 523.19 50.6469H535.632V8.02409V8.00834Z" fill="white"/>
<path d="M594.509 102.93V1.73047H608.245V48.4756H657.444V1.73047H671.181V102.93H657.444V54.7534H608.245V102.93H594.509Z" fill="white"/>
<path d="M715.485 102.93V1.73047H780V8.00824H729.222V48.4913H765.979V54.7691H729.222V96.6682H780V102.946H715.485V102.93Z" fill="white"/>
<path d="M91.6087 107.698H106.198L101.982 96.8098L100.64 93.3169H93.4402L91.0245 87.0705L57.962 1.73047H43.5307L46.1833 8.59043L15.1576 87.0705L12.6945 93.3169H5.73147L5.13147 94.8745H5.06833L0 107.698H10.2156L12.8997 100.759H88.9245L91.6087 107.698ZM22.2154 87.0705L29.8889 67.2932L32.3046 61.0154L49.4043 16.9608L66.3934 61.0154L68.8091 67.2932L76.4353 87.0705L78.851 93.3169H19.768L22.1995 87.0705H22.2154Z" fill="white"/>
<path d="M205.085 149.928V173.465H200.759V163.884C200.759 163.412 200.791 163.113 200.886 162.94L200.822 162.877C200.586 162.971 200.285 163.05 199.907 163.05H190.559C190.18 163.05 189.912 162.987 189.675 162.877L189.612 162.94C189.707 163.176 189.738 163.475 189.738 163.884V173.465H185.412V149.928H189.738V158.172C189.738 158.581 189.707 158.88 189.612 159.116L189.675 159.179C189.849 159.085 190.149 159.053 190.559 159.053H199.907C200.349 159.053 200.649 159.085 200.822 159.179L200.886 159.116C200.791 158.943 200.759 158.644 200.759 158.172V149.928H205.085Z" fill="white"/>
<path d="M215.807 173.465L227.222 149.455H227.933L239.348 173.465H234.548L232.054 167.879H223.101L220.607 173.465H215.807ZM224.175 164.591C224.506 164.528 225.091 164.497 225.896 164.497H229.243C230.048 164.497 230.633 164.528 230.964 164.591L230.996 164.559C230.696 164.15 230.348 163.584 229.985 162.813L228.438 159.116C227.933 157.936 227.696 157.102 227.664 156.567H227.522C227.459 157.133 227.191 157.983 226.717 159.116L225.17 162.813C224.87 163.521 224.522 164.087 224.159 164.559L224.191 164.591H224.175Z" fill="white"/>
<path d="M287.868 149.928V173.465H283.542V154.727C283.542 154.349 283.574 154.05 283.684 153.814L283.621 153.751C283.447 153.845 283.147 153.877 282.737 153.877H273.563C273.153 153.877 272.853 153.845 272.679 153.751L272.616 153.814C272.711 154.05 272.742 154.349 272.742 154.727V173.465H268.416V149.928H287.852H287.868Z" fill="white"/>
<path d="M311.457 149.424C315.072 149.424 318.041 150.572 320.362 152.885C322.683 155.198 323.835 158.125 323.835 161.696C323.835 165.268 322.683 168.194 320.362 170.507C318.041 172.82 315.056 173.969 311.457 173.969C307.857 173.969 304.904 172.82 302.583 170.507C300.262 168.194 299.109 165.268 299.109 161.696C299.109 158.125 300.262 155.198 302.583 152.885C304.904 150.572 307.841 149.424 311.457 149.424ZM305.851 155.922C304.399 157.432 303.657 159.352 303.657 161.712C303.657 164.072 304.399 165.976 305.851 167.47C307.304 168.981 309.151 169.72 311.457 169.72C313.762 169.72 315.672 168.981 317.125 167.47C318.577 165.992 319.288 164.072 319.288 161.712C319.288 159.352 318.577 157.448 317.125 155.922C315.672 154.443 313.778 153.703 311.457 153.703C309.135 153.703 307.304 154.443 305.851 155.922Z" fill="white"/>
<path d="M347.851 173.465V165.331C347.851 164.45 347.914 163.852 348.088 163.553L348.025 163.49C345.925 164.261 343.635 164.67 341.172 164.67C336.42 164.67 333.814 161.948 333.814 156.866V149.943H338.141V156.473C338.141 159.163 339.451 160.642 341.914 160.642C343.604 160.642 345.593 160.312 347.851 159.635V149.943H352.177V173.481H347.851V173.465Z" fill="white"/>
<path d="M380.187 149.928V153.924H374.519C374.108 153.924 373.808 153.893 373.635 153.798L373.572 153.861C373.635 154.034 373.666 154.333 373.666 154.774V173.481H369.34V154.774C369.34 154.396 369.372 154.097 369.482 153.861L369.419 153.798C369.214 153.893 368.914 153.924 368.535 153.924H362.835V149.928H380.187Z" fill="white"/>
<path d="M386.503 173.465L397.918 149.455H398.629L410.045 173.465H405.245L402.75 167.879H393.798L391.303 173.465H386.503ZM394.871 164.591C395.203 164.528 395.787 164.497 396.592 164.497H399.939C400.745 164.497 401.329 164.528 401.661 164.591L401.692 164.559C401.392 164.15 401.045 163.584 400.682 162.813L399.134 159.116C398.629 157.936 398.392 157.102 398.361 156.567H398.218C398.155 157.133 397.887 157.983 397.413 159.116L395.866 162.813C395.566 163.521 395.219 164.087 394.855 164.559L394.887 164.591H394.871Z" fill="white"/>
<path d="M431.975 173.701L426.67 162.2C426.102 160.925 425.754 159.808 425.691 158.864H425.549C425.518 160.107 425.312 161.256 425.012 162.262L421.57 173.465H416.976L424.807 149.581H425.518L431.565 163.38C431.865 164.119 432.07 164.953 432.165 165.928H432.291C432.386 164.89 432.591 164.04 432.859 163.38L438.907 149.581H439.617L447.48 173.465H442.854L439.444 162.262C439.144 161.256 438.938 160.107 438.907 158.864H438.765C438.67 159.839 438.354 160.957 437.786 162.2L432.481 173.701H431.944H431.975Z" fill="white"/>
<path d="M471.322 149.928V153.924H465.654C465.243 153.924 464.943 153.893 464.77 153.798L464.706 153.861C464.77 154.034 464.801 154.333 464.801 154.774V173.481H460.475V154.774C460.475 154.396 460.506 154.097 460.617 153.861L460.554 153.798C460.349 153.893 460.049 153.924 459.67 153.924H453.97V149.928H471.322Z" fill="white"/>
<path d="M483.796 170.539C481.427 168.257 480.259 165.299 480.259 161.696C480.259 158.093 481.443 155.135 483.796 152.854C486.164 150.572 489.195 149.424 492.937 149.424C496.143 149.424 498.953 150.305 501.416 152.02L499.016 155.654C497.122 154.349 495.101 153.703 492.937 153.703C490.538 153.703 488.611 154.443 487.127 155.922C485.611 157.401 484.869 159.32 484.869 161.712C484.869 164.103 485.611 166.023 487.127 167.502C488.611 168.981 490.538 169.72 492.937 169.72C495.101 169.72 497.122 169.075 499.016 167.769L501.416 171.404C498.953 173.119 496.158 174 492.937 174C489.195 174 486.148 172.851 483.796 170.57V170.539Z" fill="white"/>
<path d="M523.616 169.972L522.81 166.039C522.4 163.852 521.5 162.971 519.511 162.971H517.584C517.079 162.971 516.747 162.939 516.574 162.829L516.542 162.892C516.637 163.191 516.716 163.6 516.716 164.103V173.449H512.39V149.912H516.716V158.361C516.716 158.864 516.653 159.242 516.542 159.541L516.574 159.604C516.747 159.509 517.079 159.462 517.584 159.462H519.511C521.374 159.462 522.274 158.581 522.779 156.331L523.584 152.964C524.089 150.777 525.747 149.707 528.479 149.707C529.316 149.707 530.026 149.739 530.642 149.849V153.782C530.342 153.751 529.931 153.719 529.458 153.719C528.337 153.719 527.705 154.191 527.468 155.104L526.726 157.936C526.426 159.147 525.921 159.95 525.21 160.39C524.468 160.831 523.189 161.098 521.326 161.13V161.256C525.1 161.35 526.489 162.168 526.931 164.686L527.531 167.518C527.831 169.028 528.337 169.563 529.584 169.563C529.789 169.563 530.263 169.532 531.005 169.469V173.544C530.089 173.638 529.252 173.67 528.479 173.67C525.747 173.67 524.121 172.427 523.616 169.972Z" fill="white"/>
<path d="M552.383 149.424C555.999 149.424 558.967 150.572 561.288 152.885C563.609 155.198 564.762 158.125 564.762 161.696C564.762 165.268 563.609 168.194 561.288 170.507C558.967 172.82 555.983 173.969 552.383 173.969C548.783 173.969 545.831 172.82 543.51 170.507C541.189 168.194 540.036 165.268 540.036 161.696C540.036 158.125 541.189 155.198 543.51 152.885C545.831 150.572 548.768 149.424 552.383 149.424ZM546.778 155.922C545.325 157.432 544.583 159.352 544.583 161.712C544.583 164.072 545.325 165.976 546.778 167.47C548.231 168.981 550.078 169.72 552.383 169.72C554.688 169.72 556.599 168.981 558.052 167.47C559.504 165.992 560.215 164.072 560.215 161.712C560.215 159.352 559.504 157.448 558.052 155.922C556.599 154.443 554.704 153.703 552.383 153.703C550.062 153.703 548.231 154.443 546.778 155.922Z" fill="white"/>
<path d="M593.83 149.597H594.541V173.481H590.215V161.98C590.215 160.029 590.341 158.644 590.593 157.842L590.451 157.81C590.073 158.644 589.504 159.431 588.762 160.17L575.325 173.827H574.646V149.943H578.925V161.413C578.925 163.396 578.799 164.78 578.562 165.583L578.689 165.614C579.067 164.78 579.636 163.994 580.409 163.254L593.815 149.597H593.83ZM590.562 144.452C590.42 147.41 588.604 149.157 585.494 149.157C582.383 149.157 580.599 147.41 580.457 144.452H583.299C583.299 145.963 584.041 146.875 585.494 146.875C586.946 146.875 587.72 145.963 587.688 144.452H590.562Z" fill="white"/>
</svg>
